<svg width="30" height="25" viewBox="0 0 30 25" fill="none" xmlns="http://www.w3.org/2000/svg">
<g clip-path="url(#clip0_2150_66237)">
<path d="M28.3594 12.2388C28.5 12.3794 28.5 12.6138 28.3594 12.8013C28.2656 12.9419 28.0312 12.9419 27.8438 12.8013L25.5 10.7388V21.52C25.5 23.2075 24.1406 24.52 22.5 24.52H7.5C5.8125 24.52 4.5 23.2075 4.5 21.52V10.7388L2.10938 12.8013C1.92188 12.9419 1.6875 12.9419 1.59375 12.8013C1.45312 12.6138 1.45312 12.3794 1.59375 12.2388L14.7188 0.660645C14.8594 0.52002 15.0938 0.52002 15.2344 0.660645L28.3594 12.2388ZM7.5 23.77H11.25V15.895C11.25 15.2856 11.7188 14.77 12.375 14.77H17.625C18.2344 14.77 18.75 15.2856 18.75 15.895V23.77H22.5C23.7188 23.77 24.75 22.7856 24.75 21.52V10.0356L15 1.41064L5.25 10.0356V21.52C5.25 22.7856 6.23438 23.77 7.5 23.77ZM12 23.77H18V15.895C18 15.7075 17.8125 15.52 17.625 15.52H12.375C12.1406 15.52 12 15.7075 12 15.895V23.77Z" fill="#1A1A1A"/>
</g>
<defs>
<clipPath id="clip0_2150_66237">
<rect width="30" height="24" fill="white" transform="translate(0 0.52002)"/>
</clipPath>
</defs>
</svg>
