<svg width="389" height="244" viewBox="0 0 389 244" fill="none" xmlns="http://www.w3.org/2000/svg">
<rect width="389" height="243.87" fill="#00BD00"/>
<g clip-path="url(#clip0_770_41644)">
<path d="M291.786 28.8256C291.786 32.342 289.383 34.7753 284.124 34.7753H276.131V13.7422H283.794C288.121 13.7422 290.285 16.1755 290.285 18.9711C290.285 21.1635 288.903 22.5174 287.37 23.1467C289.743 23.748 291.786 25.7312 291.786 28.8256ZM280.068 17.197V22.0654H283.463C285.446 22.0654 286.378 21.0439 286.378 19.5108C286.378 18.0691 285.387 17.197 283.463 17.197H280.068ZM287.85 28.2243C287.85 26.3905 286.617 25.1 283.824 25.1H280.068V31.3205H283.945C286.619 31.3205 287.852 30.088 287.852 28.2262" fill="white"/>
<path d="M308.974 28.345H297.286C297.768 30.6289 299.57 31.7998 301.824 31.7998C303.837 31.7998 304.739 31.3199 305.88 30.5972L308.013 32.6701C306.631 34.1435 304.707 35.0735 301.703 35.0735C297.796 35.0735 293.439 32.3694 293.439 26.9911C293.439 21.6129 297.917 18.8789 301.432 18.8789C304.946 18.8789 309.845 21.583 308.974 28.3432M297.316 25.5513H305.579C305.159 23.3272 303.176 22.1862 301.432 22.1862C299.688 22.1862 297.856 23.3272 297.316 25.5513Z" fill="white"/>
<path d="M326.043 25.7618V34.7761H322.196V26.0028C322.196 23.2987 320.663 22.2772 319.01 22.2772C316.426 22.2772 315.255 24.5611 314.984 25.4014V34.7761H311.107V19.1511H314.984V22.2156C315.285 21.3136 316.997 18.9102 320.213 18.9102C323.098 18.9102 326.041 20.8635 326.041 25.7618" fill="white"/>
<path d="M332.142 17.2269H328.265V13.5312H332.142V17.2269ZM332.142 34.7754H328.265V19.1504H332.142V34.7754Z" fill="white"/>
<path d="M359.485 28.345H347.797C348.277 30.6289 350.081 31.7998 352.335 31.7998C354.348 31.7998 355.25 31.3199 356.391 30.5972L358.524 32.6701C357.142 34.1435 355.218 35.0735 352.214 35.0735C348.307 35.0735 343.95 32.3694 343.95 26.9911C343.95 21.6129 348.428 18.8789 351.943 18.8789C355.457 18.8789 360.356 21.583 359.485 28.3432M347.827 25.5513H356.09C355.67 23.3272 353.687 22.1862 351.943 22.1862C350.199 22.1862 348.367 23.3272 347.827 25.5513Z" fill="white"/>
<path d="M367.269 29.5783L363.513 34.7773H359.065L365.045 26.7846L359.577 19.1523H363.964L367.269 23.9592L370.574 19.1523H374.961L369.491 26.7846L375.473 34.7773H371.024L367.269 29.5783Z" fill="white"/>
<path d="M339.864 18.4296C339.864 17.4977 340.165 16.4164 341.606 16.4164C342.381 16.4164 342.829 16.5546 343.575 16.8553V13.5854C342.837 13.3575 342.028 13.2324 341.186 13.2324C339.263 13.2324 335.987 13.8636 335.987 18.4314V19.1523H334.004V22.3363H335.987V34.7754H339.864V22.3363H343.56V19.1523H339.864V18.4314V18.4296Z" fill="white"/>
</g>
<path d="M212.301 131.593C212.113 134.596 214.297 137.724 218.975 141.134L219.053 141.196C225.681 146.093 229.221 151.364 230.531 158.246C231.685 164.269 230.39 169.868 226.788 174.404C225.463 176.078 223.84 177.579 221.985 178.909C225.775 177.407 229.298 175.498 232.48 173.183C239.794 167.897 245.204 160.639 247.747 152.74C249.618 146.906 249.852 140.962 248.418 135.566C246.92 129.934 243.629 125.024 238.889 121.379C234.554 118.345 230.905 116.576 229.642 115.998C214.765 124.304 212.503 128.417 212.301 131.608V131.593Z" fill="url(#paint0_linear_770_41644)"/>
<path d="M229.657 116.42C231.123 117.094 234.569 118.814 238.654 121.676C243.333 125.273 246.577 130.107 248.043 135.66C249.446 140.978 249.212 146.843 247.372 152.615C244.862 160.452 239.497 167.631 232.261 172.872C229.823 174.619 227.229 176.137 224.511 177.408C225.458 176.568 226.33 175.647 227.115 174.655C230.78 170.025 232.09 164.33 230.936 158.184C229.61 151.192 226.023 145.858 219.302 140.884L219.225 140.821C214.671 137.489 212.534 134.487 212.721 131.625C212.909 128.542 215.107 124.586 229.688 116.421M229.673 115.982C214.796 124.288 212.534 128.402 212.332 131.592C212.144 134.596 214.328 137.725 219.006 141.134L219.084 141.197C225.712 146.092 229.252 151.364 230.562 158.247C231.715 164.268 230.421 169.868 226.819 174.404C225.494 176.078 223.871 177.579 222.015 178.909C225.806 177.408 229.329 175.499 232.511 173.184C239.825 167.897 245.235 160.639 247.777 152.74C249.649 146.906 249.883 140.962 248.448 135.566C246.951 129.935 243.66 125.023 238.92 121.378C234.585 118.345 230.936 116.577 229.673 115.998V115.982Z" fill="url(#paint1_linear_770_41644)"/>
<path d="M232.683 37.1026C228.878 35.3182 224.746 33.9584 220.426 33.0508C226.367 36.164 230.967 41.2471 233.571 47.8328C235.942 53.8545 236.379 60.5496 234.835 67.1805C233.198 74.2193 229.346 80.8205 223.717 86.2641C220.956 89.0168 217.525 91.6446 213.907 94.4283C208.511 98.5741 203.007 102.797 199.561 107.552C204.301 103.438 211.521 99.5591 219.35 95.3514C229.346 89.9709 239.685 84.419 246.468 77.5669C254.078 69.9023 255.637 62.2222 251.381 53.4013C247.217 46.4873 240.76 40.8403 232.714 37.0704L232.683 37.1026Z" fill="url(#paint2_linear_770_41644)"/>
<path d="M222.859 34.0203C226.184 34.8559 229.422 36.0084 232.527 37.4618C240.511 41.2162 246.904 46.8002 251.006 53.6202C255.17 62.2686 253.641 69.8083 246.156 77.348C239.419 84.1525 229.111 89.6889 219.132 95.054C212.784 98.4646 206.734 101.718 202.134 105.065C205.471 101.436 209.853 98.0733 214.109 94.8042C217.744 92.0039 221.19 89.3761 223.981 86.5769C229.657 81.0869 233.54 74.4073 235.209 67.3054C236.769 60.596 236.332 53.8236 233.931 47.7233C231.654 41.9657 227.848 37.2739 222.842 34.037M220.426 33.0829C226.367 36.1949 230.967 41.2793 233.571 47.8637C235.942 53.8855 236.379 60.5806 234.835 67.2126C233.198 74.2515 229.346 80.8514 223.717 86.295C220.956 89.0477 217.525 91.6756 213.907 94.4604C208.511 98.605 203.007 102.828 199.561 107.583C204.301 103.469 211.521 99.59 219.35 95.3824C229.346 90.0018 239.685 84.4499 246.468 77.5978C254.078 69.9344 255.637 62.2543 251.381 53.4322C247.217 46.5183 240.76 40.8724 232.714 37.1026C228.909 35.3182 224.777 33.9584 220.457 33.0508L220.426 33.0829Z" fill="url(#paint3_linear_770_41644)"/>
<path d="M221.563 208.159C219.877 208.373 218.18 208.477 216.48 208.472C210.134 208.472 203.724 207.002 197.393 204.03C185.806 198.602 175.312 188.325 167.81 175.093C159.919 161.156 155.74 144.92 155.709 128.105C155.429 112.338 159.421 97.0564 167.233 83.9172C173.346 73.6414 180.722 66.2421 189.189 61.925C190.372 61.3205 191.585 60.7777 192.824 60.2988C188.005 61.1589 183.295 62.7851 178.71 65.2107C169.573 70.0286 161.073 78.0049 154.119 88.2652C144.669 102.233 138.446 119.518 136.622 136.973C134.734 154.978 137.853 171.229 145.386 182.756C153.807 194.41 164.848 202.763 177.323 206.923C190.297 211.24 203.116 212.179 215.388 209.708C217.482 209.286 219.554 208.759 221.595 208.128L221.563 208.159Z" fill="url(#paint4_linear_770_41644)"/>
<path d="M189.112 61.5503C189.112 61.5503 189.034 61.5812 189.003 61.6121C180.473 65.9613 173.035 73.4059 166.89 83.7459C159.046 96.9469 155.038 112.308 155.319 128.137C155.35 144.999 159.546 161.313 167.467 175.312C174.999 188.622 185.572 198.946 197.222 204.405C203.553 207.377 210.04 208.879 216.48 208.879H217.509C216.761 209.05 216.028 209.223 215.28 209.363C210.839 210.258 206.32 210.709 201.79 210.709C193.822 210.709 185.619 209.332 177.431 206.595C165.05 202.466 154.071 194.16 145.713 182.585C138.228 171.135 135.14 154.961 137.011 137.052C138.836 119.659 145.011 102.437 154.446 88.5162C161.369 78.3023 169.822 70.3557 178.898 65.5854C182.148 63.866 185.579 62.5127 189.128 61.5503M192.824 60.3298C188.005 61.191 183.295 62.816 178.71 65.2416C169.573 70.0595 161.073 78.0358 154.119 88.2973C144.669 102.266 138.446 119.549 136.622 137.006C134.734 155.009 137.853 171.26 145.386 182.789C153.807 194.441 164.848 202.794 177.323 206.954C185.587 209.708 193.774 211.084 201.806 211.084C206.362 211.084 210.906 210.634 215.373 209.739C217.467 209.318 219.539 208.79 221.58 208.159C219.894 208.373 218.195 208.477 216.496 208.472C210.149 208.472 203.74 207.002 197.408 204.03C185.822 198.602 175.327 188.325 167.825 175.093C159.935 161.156 155.756 144.92 155.725 128.105C155.444 112.338 159.436 97.0564 167.248 83.9172C173.362 73.6414 180.737 66.2421 189.206 61.925C190.388 61.3203 191.601 60.7775 192.839 60.2988L192.824 60.3298Z" fill="url(#paint5_linear_770_41644)"/>
<path d="M248.573 129.777C251.972 136.722 252.518 145.044 249.836 153.412C247.17 161.765 241.462 169.429 233.774 174.982C225.181 181.192 214.344 184.664 202.429 185.055H202.382C201.899 185.071 201.4 185.087 200.917 185.087H200.184C192.013 184.993 184.262 182.647 178.305 178.455C172.676 174.481 167.826 168.803 164.099 161.889C165.68 166.076 167.583 170.135 169.791 174.028C177.057 186.87 187.224 196.817 198.39 202.058C214.14 209.44 230.515 207.063 244.472 195.379C253.095 187.605 258.709 177.656 260.299 167.333C261.922 156.76 260.128 146.952 254.966 138.193C253.251 135.267 251.114 132.453 248.651 129.793L248.573 129.777Z" fill="url(#paint6_linear_770_41644)"/>
<path d="M249.914 131.889C251.636 133.92 253.186 136.091 254.546 138.381C259.661 147.061 261.454 156.775 259.833 167.27C258.258 177.501 252.691 187.37 244.145 195.066C235.692 202.136 226.117 205.874 216.449 205.874C210.446 205.874 204.395 204.467 198.484 201.698C187.381 196.505 177.291 186.603 170.056 173.825C168.721 171.456 167.493 169.03 166.375 166.552C169.681 171.51 173.658 175.685 178.009 178.768C183.92 182.928 191.622 185.306 199.716 185.461H200.87C201.37 185.461 201.868 185.461 202.414 185.431C214.407 185.039 225.323 181.52 233.977 175.28C241.727 169.679 247.481 161.953 250.195 153.522C252.566 146.092 252.456 138.505 249.899 131.889M248.558 129.777C251.958 136.722 252.503 145.044 249.821 153.412C247.154 161.765 241.447 169.429 233.759 174.982C225.167 181.192 214.328 184.664 202.414 185.055H202.367C201.879 185.074 201.39 185.084 200.901 185.087H200.169C191.997 184.993 184.247 182.647 178.289 178.455C172.66 174.481 167.81 168.803 164.083 161.889C165.665 166.076 167.569 170.134 169.775 174.028C177.043 186.87 187.21 196.817 198.376 202.058C204.38 204.873 210.492 206.265 216.511 206.265C226.273 206.265 235.817 202.605 244.456 195.379C253.08 187.605 258.695 177.656 260.285 167.333C261.907 156.76 260.114 146.952 254.951 138.193C253.237 135.267 251.1 132.453 248.635 129.793L248.558 129.777Z" fill="url(#paint7_linear_770_41644)"/>
<path d="M256.964 73.046C256.87 70.0125 256.464 67.0861 255.793 64.2715C255.341 69.4332 252.752 74.376 247.996 79.1617C240.979 86.2327 230.5 91.8786 220.363 97.3377C207.872 104.064 196.068 110.414 196.02 117.374V117.859C196.441 127.135 203.241 131.327 211.163 136.113C210.351 134.565 209.993 133.032 210.102 131.467C210.492 125.29 217.946 119.94 229.05 113.792C243.583 105.737 257.712 95.9601 256.964 73.046Z" fill="url(#paint8_linear_770_41644)"/>
<path d="M255.856 66.477C256.262 68.604 256.495 70.8095 256.573 73.046C257.322 95.7424 243.302 105.44 228.862 113.433C217.665 119.643 210.118 125.07 209.713 131.421C209.634 132.64 209.837 133.876 210.29 135.097C202.945 130.638 196.801 126.525 196.41 117.812V117.36C196.457 110.633 208.153 104.328 220.55 97.666C230.717 92.1915 241.213 86.5444 248.277 79.4282C252.456 75.2051 254.967 70.9499 255.872 66.477M255.793 64.2715C255.341 69.4332 252.752 74.376 247.996 79.1617C240.979 86.2327 230.5 91.8786 220.363 97.3377C207.872 104.064 196.068 110.414 196.02 117.374V117.859C196.441 127.135 203.241 131.327 211.163 136.113C210.351 134.565 209.993 133.032 210.102 131.467C210.492 125.29 217.946 119.94 229.05 113.792C243.583 105.737 257.712 95.9601 256.964 73.046C256.87 70.0125 256.464 67.0861 255.793 64.2715Z" fill="url(#paint9_linear_770_41644)"/>
<path d="M128.201 127.182C128.326 140.978 131.055 154.289 136.029 166.083C133.893 157.245 133.332 147.297 134.423 136.77C136.278 118.97 142.625 101.31 152.279 87.0457C159.436 76.4725 168.216 68.244 177.666 63.2703C188.27 57.6863 199.56 56.0756 211.225 58.4845C211.63 58.5619 212.036 58.6558 212.457 58.7498H212.488C212.519 58.7498 212.551 58.7498 212.582 58.7653C220.425 60.7043 226.632 65.8042 228.784 72.1079C229.137 73.1248 229.327 74.1912 229.346 75.2675C230.827 72.5679 231.934 69.6792 232.636 66.6809C234.086 60.4866 233.681 54.2448 231.467 48.6465C227.365 38.228 217.805 31.9088 205.892 31.7363C194.882 31.9552 183.81 34.8495 173.86 40.1052C162.867 45.9235 153.682 54.2924 146.586 64.9595C134.313 83.4008 127.92 104.909 128.138 127.166L128.201 127.182Z" fill="url(#paint10_linear_770_41644)"/>
<path d="M205.953 32.1274C217.696 32.2999 227.115 38.5251 231.154 48.802C233.337 54.3385 233.727 60.5018 232.308 66.6175C231.715 69.146 230.83 71.5972 229.672 73.9217C229.576 73.2674 229.419 72.6234 229.204 71.9981C227.006 65.6004 220.721 60.3923 212.784 58.4212H212.737L212.596 58.3736C212.175 58.2653 211.738 58.1714 211.333 58.0928C207.825 57.3731 204.3 56.9984 200.869 56.9984C192.823 56.9984 184.963 58.985 177.509 62.9262C167.997 67.932 159.17 76.2057 151.981 86.8265C142.298 101.139 135.919 118.86 134.048 136.723C133.128 145.53 133.362 153.897 134.719 161.656C130.821 150.957 128.699 139.117 128.59 127.166C128.388 105.002 134.75 83.5729 146.975 65.1781C154.04 54.5573 163.178 46.2361 174.11 40.4487C183.997 35.2251 195.007 32.3475 205.953 32.1274ZM205.953 31.7372C194.944 31.9561 183.872 34.8492 173.922 40.1049C162.929 45.9232 153.744 54.2921 146.648 64.9592C134.375 83.4016 127.982 104.908 128.2 127.166C128.325 140.962 131.054 154.273 136.029 166.067C133.892 157.23 133.331 147.281 134.423 136.754C136.278 118.954 142.625 101.294 152.277 87.0299C159.435 76.4555 168.216 68.2283 177.665 63.2545C185.088 59.3443 192.854 57.3731 200.838 57.3731C204.269 57.3731 207.731 57.7336 211.225 58.4521C211.63 58.5306 212.035 58.6246 212.456 58.7186H212.488C212.519 58.7186 212.55 58.7186 212.581 58.734C220.425 60.6731 226.631 65.7729 228.783 72.0766C229.158 73.171 229.329 74.2191 229.345 75.2362C230.827 72.5365 231.934 69.6473 232.635 66.6485C234.085 60.4542 233.68 54.2135 231.466 48.6141C227.364 38.1967 217.805 31.8776 205.89 31.7051L205.953 31.7372Z" fill="url(#paint11_linear_770_41644)"/>
<path d="M343.698 185.59C339.382 185.59 335.404 187.084 332.248 189.558C336.609 192.976 339.436 198.295 339.436 204.285C339.436 210.275 336.62 215.595 332.248 219.013C335.415 221.486 339.382 222.981 343.698 222.981C353.988 222.981 362.338 214.617 362.338 204.285C362.338 193.954 353.999 185.59 343.698 185.59Z" fill="#F99F1C"/>
<path d="M325.06 204.274C325.06 198.284 327.876 192.964 332.248 189.546C329.081 187.073 325.115 185.578 320.798 185.578C310.509 185.578 302.159 193.942 302.159 204.274C302.159 214.604 310.498 222.969 320.798 222.969C325.115 222.969 329.092 221.474 332.248 219.001C327.876 215.583 325.06 210.264 325.06 204.274Z" fill="#E51B24"/>
<path d="M339.425 204.274C339.425 198.284 336.609 192.965 332.238 189.547C327.865 192.965 325.049 198.284 325.049 204.274C325.049 210.264 327.865 215.584 332.238 219.002C336.599 215.584 339.425 210.264 339.425 204.274Z" fill="#F26522"/>
<defs>
<linearGradient id="paint0_linear_770_41644" x1="283.317" y1="40.3084" x2="185.53" y2="225.949" gradientUnits="userSpaceOnUse">
<stop stop-color="#B8FF00"/>
<stop offset="1" stop-color="#B8FF00" stop-opacity="0"/>
</linearGradient>
<linearGradient id="paint1_linear_770_41644" x1="230.811" y1="115.982" x2="230.811" y2="178.909" gradientUnits="userSpaceOnUse">
<stop stop-color="#B8FF00"/>
<stop offset="0.48" stop-color="#00BD00"/>
<stop offset="1" stop-color="#B8FF00" stop-opacity="0.1"/>
</linearGradient>
<linearGradient id="paint2_linear_770_41644" x1="251.006" y1="23.2901" x2="153.22" y2="208.932" gradientUnits="userSpaceOnUse">
<stop stop-color="#B8FF00"/>
<stop offset="1" stop-color="#B8FF00" stop-opacity="0"/>
</linearGradient>
<linearGradient id="paint3_linear_770_41644" x1="226.601" y1="33.0508" x2="226.601" y2="107.6" gradientUnits="userSpaceOnUse">
<stop stop-color="#B8FF00"/>
<stop offset="0.48" stop-color="#00BD00"/>
<stop offset="1" stop-color="#B8FF00" stop-opacity="0.1"/>
</linearGradient>
<linearGradient id="paint4_linear_770_41644" x1="252.487" y1="24.0731" x2="154.701" y2="209.714" gradientUnits="userSpaceOnUse">
<stop stop-color="#B8FF00"/>
<stop offset="1" stop-color="#B8FF00" stop-opacity="0"/>
</linearGradient>
<linearGradient id="paint5_linear_770_41644" x1="178.82" y1="60.3298" x2="178.82" y2="211.084" gradientUnits="userSpaceOnUse">
<stop stop-color="#B8FF00"/>
<stop offset="0.48" stop-color="#00BD00"/>
<stop offset="1" stop-color="#B8FF00" stop-opacity="0.1"/>
</linearGradient>
<linearGradient id="paint6_linear_770_41644" x1="333.53" y1="136.3" x2="142.579" y2="197.762" gradientUnits="userSpaceOnUse">
<stop stop-color="#B8FF00"/>
<stop offset="1" stop-color="#B8FF00" stop-opacity="0"/>
</linearGradient>
<linearGradient id="paint7_linear_770_41644" x1="212.411" y1="129.777" x2="212.411" y2="206.265" gradientUnits="userSpaceOnUse">
<stop stop-color="#B8FF00"/>
<stop offset="0.48" stop-color="#00BD00"/>
<stop offset="1" stop-color="#B8FF00" stop-opacity="0.1"/>
</linearGradient>
<linearGradient id="paint8_linear_770_41644" x1="313.555" y1="74.2511" x2="122.603" y2="135.712" gradientUnits="userSpaceOnUse">
<stop stop-color="#B8FF00"/>
<stop offset="1" stop-color="#B8FF00" stop-opacity="0"/>
</linearGradient>
<linearGradient id="paint9_linear_770_41644" x1="226.507" y1="64.2715" x2="226.507" y2="136.097" gradientUnits="userSpaceOnUse">
<stop stop-color="#B8FF00"/>
<stop offset="0.48" stop-color="#00BD00"/>
<stop offset="1" stop-color="#B8FF00" stop-opacity="0.1"/>
</linearGradient>
<linearGradient id="paint10_linear_770_41644" x1="306.834" y1="53.3538" x2="115.881" y2="114.816" gradientUnits="userSpaceOnUse">
<stop stop-color="#B8FF00"/>
<stop offset="1" stop-color="#B8FF00" stop-opacity="0"/>
</linearGradient>
<linearGradient id="paint11_linear_770_41644" x1="180.862" y1="31.7372" x2="180.862" y2="166.083" gradientUnits="userSpaceOnUse">
<stop stop-color="#B8FF00"/>
<stop offset="0.48" stop-color="#00BD00"/>
<stop offset="1" stop-color="#B8FF00" stop-opacity="0.1"/>
</linearGradient>
<clipPath id="clip0_770_41644">
<rect width="99.5354" height="22.036" fill="white" transform="translate(275.988 13.0859)"/>
</clipPath>
</defs>
</svg>
